<!DOCTYPE svg PUBLIC "-//W3C//DTD SVG 1.1//EN" "http://www.w3.org/Graphics/SVG/1.1/DTD/svg11.dtd">
<!-- Uploaded to: SVG Repo, www.svgrepo.com, Transformed by: SVG Repo Mixer Tools -->
<svg fill="#ffffff" width="800px" height="800px" viewBox="0 0 24 24" id="danger" data-name="Flat Color" xmlns="http://www.w3.org/2000/svg" class="icon flat-color">
<g id="SVGRepo_bgCarrier" stroke-width="0"/>
<g id="SVGRepo_tracerCarrier" stroke-linecap="round" stroke-linejoin="round"/>
<g id="SVGRepo_iconCarrier">
<path id="primary" d="M21.79,19.11l-8-16h0a2,2,0,0,0-3.58,0l-8,16A2,2,0,0,0,4,22H20a2,2,0,0,0,1.79-2.89Z" style="fill: #FFD700;"/>
<path id="secondary" d="M13.5,17.5A1.5,1.5,0,1,1,12,16,1.5,1.5,0,0,1,13.5,17.5ZM13,13V10a1,1,0,0,0-2,0v3a1,1,0,0,0,2,0Z" style="fill: #000000;"/>
</g>
</svg>